<?xml version="1.0"?>
<svg xmlns="http://www.w3.org/2000/svg" enable-background="new 0 0 100 100" height="512px" viewBox="0 0 100 100" width="512px" class=""><g transform="matrix(-1 0 0 1 100 0)"><path d="m87.5002289 17.0539532c-1.1002197-2.3398447-2.4468994-3.7666025-4.8111572-4.781251-2.3200684-.9956055-4.3826904-2.5488281-6.8790283-3.0917969-.4144287-.090332-.6055908-.3686523-.6314697-.6762695-1.2172852-.1123047-2.4348145-.2226562-3.6585693-.2314453-2.779541-.0209961-6.2369385-.8393555-8.277462 1.4516602-.848877.9526367-1.4719238 2.0961914-2.2636719 3.0952148-.3898926.4921875-.8284912.9418945-1.2319336 1.421875-.1501465.1660156-.300415.3320312-.4506836.4980469-.0690918.2963867-.1478271.5214844-.2346191.6894531.3657227.2294922.5657959.746583.3781738 1.16504.1977539-.0336914.3266602-.0644531.3266602-.0644531s-1.5965576 5.902832-1.2474365 8.4023438 1.3172607.9726562-.3491211 4.1660156c-1.6617432 3.1928692-1.4569092 4.5800762 0 5.1342754 1.4615479.5585938 1.3917236 1.7363281.8797607 2.7788086-.5073242 1.0424805.6516113.9731445.6516113.9731445s-1.4615479.4140625 0 1.456543c1.4570312 1.0429688.204834.6240234.5539551 3.3330078.2440186 1.9155273 2.7885742.8022461 4.2519493-.0102539 1.0410156-.578125 2.3101807-.6665039 3.3681641-.1201172 1.7412109.8984375 1.8199463 2.7001953 1.8199463 2.7001953l-4.545166 7.3662109 16.3106689-.3833008 1.7009277-6.9829102c-1.3033447-4.0546875-.3676758-7.3364258 1.1079102-10.4038086.2905273-.6044922.6021729-1.2006836.9208984-1.7929688-.3436279-.375-.4118652-1.0375977.1473389-1.3891582.5733643-.3598633 1.0527344-.9125977 1.4517822-1.5634766.2349854-.449707.4609375-.9018555.6739502-1.3574219.4871826-1.2084961.7786865-2.5263672.9241943-3.5600586.3840331-2.7290037.2980956-5.7011717-.8875733-8.2231443z" fill="#e7a14e" data-original="#E7A14E" class="" style="fill:#E7A14E"/><path d="m11.8838758 33.7822495 2.8047867.0596161c.4796286.0101929.8601923.4072876.8499975.8869133l-.059618 2.8049088c-.0101948.4796295-.4072876.8601913-.8869152.8499985l-2.8047866-.0596162c-.4796276-.0101929-.8601913-.4072876-.8499975-.8869171l.059618-2.8049049c.0101947-.4796296.4072875-.8601952.8869151-.8499985z" fill="#467082" data-original="#467082" style="fill:#467082"/><path d="m26.3968887 42.9532433 1.0079594 4.0551338 8.9477024-2.2240753-1.0079613-4.0551338 1.562561-.3883934 1.196476 4.813549c.1130409.4547882-.1639862.9150887-.6187744 1.0281334l-10.4256783 2.5914459c-.4547882.1130447-.9150906-.1639862-1.0281334-.6187744l-1.1964741-4.813549z" fill="#ac433b" data-original="#AC433B" style="fill:#AC433B"/><path d="m15.3513136 24.4082966 25.5094452 8.4604321-.1619263 7.6182747-25.8110542 7.3495331c-.7855692.2236519-1.5632725-.3766289-1.5459156-1.1932144l.4491949-21.1336555c.0169754-.798649.8021221-1.3528291 1.560256-1.10137z" fill="#cd5248" data-original="#CD5248" style="fill:#CD5248"/><path d="m15.3858671 24.419775 25.4748917 8.4489536-.0006371.0300217 6.5485687.1391907c-.0817413.5483742-.253212 1.0848312-.5039864 1.5896263-1.0245972 2.0886841-3.2526474 3.3816566-6.1635857 3.8698959-4.2458115.6999092-9.9557972-.3016586-15.578043-3.0817337-5.1768589-2.5605965-9.2026854-6.0869465-11.3784399-9.6039467l.0056467-.265686c.0173599-.8167114.8202344-1.3834572 1.595585-1.1263218z" fill="#dd584d" data-original="#DD584D" style="fill:#DD584D"/><path d="m40.5625534 32.7843246-.1630821 7.672718 9.3977776.199749c.7298164.0155106 1.3425064-.5705605 1.3584709-1.3215828l.1059189-4.9832458c.0157471-.7408638-.5714912-1.3523788-1.3013039-1.3678894z" fill="#467082" data-original="#467082" style="fill:#467082"/><path d="m31.3572578 44.0912132c.4862995-.3163452 1.1369591-.1785927 1.4533386.3077621-.3163795-.4863548-.1785812-1.1370049.3077202-1.4533463.4863014-.3163452 1.1369591-.1785889 1.4533348.3077621l1.8713112 2.9470787 1.5979843-1.2983017 1.4590988 1.9513931-.0189438 3.9469261 1.8943672 4.0895042-6.6777191 3.4971581-7.17033-10.5514259c-.3163776-.486351-.1785812-1.137001.3077202-1.4533463.4863014-.3163414 1.136961-.1785889 1.4533386.307766-.3163776-.4863548-.1785812-1.1370049.3077202-1.4533501.4863014-.3163414 1.136961-.1785889 1.4533367.307766-.3163757-.4863546-.1785793-1.1370047.3077221-1.4533461z" fill="#e7a14e" data-original="#E7A14E" class="" style="fill:#E7A14E"/><path d="m75.5976257 7.3695531c-11.1762772-2.8488178-16.6596642 5.4135261-17.9816513 7.7037282-1.3173294 2.2902021 2.1505318 1.4569674 2.1505318 1.4569674s7.1224403 2.1423187 10.4279976 3.5919323c3.3791199 1.4818745 3.4217148 2.8767262 3.2121048 4.4356575-.1158829.8618164.4850388 1.6561127 1.340744 1.8108006.6896515.1246719 1.3809967-.2003307 1.7252502-.8107853 1.0518799-1.8652401 3.4852829-5.1903954 5.4369888-.3695545 1.5547028 3.8429146 1.0587006 5.9379349.4269028 6.9920902-.3627777.6052094-.1782227 1.3859406.413208 1.7708511l1.5198975.9889297c1.6617813-3.4585743 3.9985199-6.6424694 4.5850067-10.3570232 1.1125107-7.0102177-2.0807037-14.3694926-13.2569809-17.213594z" fill="#344d5b" data-original="#344D5B" style="fill:#344D5B"/><path d="m85.8929291 48.9870567-3.1626205-5.3627243c-3.8719482 3.8227539-8.8077164 5.4325485-15.0696793 5.0170212l-2.3997803 2.1191406c-6.2996788 5.5639648-9.9079552 13.5644569-9.9079552 21.9692421v20.4912109h33.7099572v-31.9965858c0-4.2822265-1.0909424-8.4936523-3.1699219-12.2373047z" fill="#ededed" data-original="#EDEDED" class="" style="fill:#EDEDED"/><path d="m69.6067047 59.82481-16.7955437 12.3391381-10.4111442-19.4539795-9.9677963 5.7547798 11.9147263 27.2663918c1.2513199 2.8636017 4.6987648 4.0245819 7.4274368 2.5013046l23.1259384-8.9295578z" fill="#ededed" data-original="#EDEDED" class="" style="fill:#EDEDED"/><g fill="#dbd8dd"><path d="m74.900322 79.302887c-.162468-.5978012-19.5474281 7.5477982-19.5474281 7.5477982l19.5474281-.6077118v-7.5890427" data-original="#DBD8DD" class="active-path" style="fill:#DBD8DD"/><path d="m69.9765701 59.3319092-14.513237 10.8835754 13.4370957-11.8283348z" data-original="#DBD8DD" class="active-path" style="fill:#DBD8DD"/></g></g> </svg>
