<?xml version="1.0" encoding="iso-8859-1"?>
<!-- Generator: Adobe Illustrator 19.0.0, SVG Export Plug-In . SVG Version: 6.00 Build 0)  -->
<svg xmlns="http://www.w3.org/2000/svg" xmlns:xlink="http://www.w3.org/1999/xlink" version="1.1" id="Layer_1" x="0px" y="0px" viewBox="0 0 505 505" style="enable-background:new 0 0 505 505;" xml:space="preserve" width="512" height="512">
<g>
	<g>
		<path style="fill:#E6E6E6;" d="M57.025,122.55v342.8c0,17.76,14.39,32.15,32.15,32.15h326.65c17.75,0,32.15-14.39,32.15-32.15    V39.65c0-17.76-14.4-32.15-32.15-32.15h-243.75L57.025,122.55z"/>
		<path style="fill:#BBB8CC;" d="M57.025,122.55h79.66c19.54,0,35.39-15.84,35.39-35.39V7.5L57.025,122.55z"/>
		<g>
			
				<ellipse transform="matrix(0.7071 0.7071 -0.7071 0.7071 306.3554 -129.3856)" style="fill:#96EFFF;" cx="309.36" cy="305.111" rx="60.617" ry="145.301"/>
			<path style="fill:#4CBFD4;" d="M206.616,407.853c-23.671-23.671,3.139-88.861,59.882-145.605s121.934-83.553,145.605-59.882     c-8.477-8.477-61.351,30.649-118.094,87.393S198.139,399.376,206.616,407.853z"/>
			<circle style="fill:#FFE563;" cx="354.443" cy="425.342" r="19.58"/>
		</g>
	</g>
	<g>
		<path d="M118.476,168.859h38.439c4.142,0,7.5-3.358,7.5-7.5s-3.358-7.5-7.5-7.5h-38.439c-4.142,0-7.5,3.358-7.5,7.5    S114.334,168.859,118.476,168.859z"/>
		<path d="M399.749,168.859c4.143,0,7.5-3.358,7.5-7.5s-3.357-7.5-7.5-7.5H186.917c-4.142,0-7.5,3.358-7.5,7.5s3.358,7.5,7.5,7.5    H399.749z"/>
		<path d="M118.476,210.887h171.603c4.143,0,7.5-3.358,7.5-7.5s-3.357-7.5-7.5-7.5H118.476c-4.142,0-7.5,3.358-7.5,7.5    S114.334,210.887,118.476,210.887z"/>
		<path d="M118.476,252.914h120.78c4.142,0,7.5-3.358,7.5-7.5s-3.358-7.5-7.5-7.5h-120.78c-4.142,0-7.5,3.358-7.5,7.5    S114.334,252.914,118.476,252.914z"/>
		<path d="M118.476,294.94h88.201c4.142,0,7.5-3.358,7.5-7.5s-3.358-7.5-7.5-7.5h-88.201c-4.142,0-7.5,3.358-7.5,7.5    S114.334,294.94,118.476,294.94z"/>
		<path d="M194.417,329.468c0-4.142-3.358-7.5-7.5-7.5h-68.441c-4.142,0-7.5,3.358-7.5,7.5s3.358,7.5,7.5,7.5h68.441    C191.059,336.968,194.417,333.61,194.417,329.468z"/>
		<path d="M447.975,398.854c4.143,0,7.5-3.358,7.5-7.5V39.65c0-21.863-17.787-39.65-39.649-39.65h-243.75    c-1.989,0-3.897,0.79-5.303,2.197l-115.05,115.05c-1.407,1.406-2.197,3.314-2.197,5.303v342.8c0,21.863,17.787,39.65,39.65,39.65    h326.65c21.862,0,39.649-17.787,39.649-39.65v-43.995c0-4.142-3.357-7.5-7.5-7.5s-7.5,3.358-7.5,7.5v43.995    c0,13.592-11.058,24.65-24.649,24.65H89.175c-13.592,0-24.65-11.058-24.65-24.65v-335.3h72.16c23.65,0,42.89-19.24,42.89-42.89V15    h236.25c13.592,0,24.649,11.058,24.649,24.65v351.704C440.475,395.496,443.832,398.854,447.975,398.854z M136.685,115.05H75.132    l89.443-89.444V87.16C164.575,102.539,152.064,115.05,136.685,115.05z"/>
		<path d="M417.406,197.064c-13.728-13.728-38.075-14.385-68.558-1.849c-5.681,2.336-11.473,5.089-17.327,8.213l-4.022-4.022    c-2.93-2.929-7.678-2.929-10.607,0c-2.929,2.929-2.929,7.678,0,10.606l1.183,1.183c-19.181,11.915-38.661,27.527-56.883,45.748    c-28.128,28.128-50.051,59.258-61.729,87.655c-10.901,26.506-11.82,48.369-2.85,62.649l-13.761,13.761    c-2.929,2.929-2.929,7.678,0,10.606c1.464,1.465,3.384,2.197,5.303,2.197c1.919,0,3.839-0.732,5.303-2.197l13.757-13.756    c6.46,4.059,14.474,6.093,23.768,6.093c11.248,0,24.372-2.979,38.885-8.947c28.397-11.678,59.527-33.601,87.656-61.729    c18.221-18.221,33.832-37.701,45.747-56.882l1.699,1.699c4.823,4.823,7.074,11.464,6.175,18.219    c-0.908,6.817-4.864,12.697-10.854,16.132c-33.271,19.078-72.931,50.68-72.931,92.897c0,14.932,12.147,27.08,27.079,27.08    s27.08-12.148,27.08-27.08s-12.148-27.08-27.08-27.08c-1.756,0-3.471,0.174-5.135,0.495c8.271-15.884,25.352-34.323,58.448-53.3    c10.076-5.778,16.731-15.679,18.261-27.165c1.521-11.424-2.282-22.652-10.436-30.806l-4.539-4.539    c3.124-5.854,5.877-11.646,8.213-17.327C431.791,235.14,431.134,210.792,417.406,197.064z M354.443,413.263    c6.661,0,12.08,5.419,12.08,12.08s-5.419,12.08-12.08,12.08c-6.66,0-12.079-5.419-12.079-12.08S347.782,413.263,354.443,413.263z     M346.919,342.67c-26.759,26.759-56.148,47.521-82.754,58.463c-24.166,9.938-43.208,10.455-52.245,1.417    c-9.037-9.038-8.521-28.08,1.417-52.246c10.941-26.605,31.704-55.995,58.463-82.754c18.402-18.402,38.047-33.967,57.176-45.454    l63.397,63.396C380.887,304.623,365.322,324.269,346.919,342.67z M405.382,259.917c-1.61,3.915-3.438,7.892-5.462,11.911    l-57.277-57.277c4.019-2.023,7.995-3.852,11.911-5.462c12.699-5.223,23.982-7.843,33.144-7.843c8.271,0,14.814,2.137,19.102,6.425    C415.837,216.708,415.321,235.751,405.382,259.917z"/>
		<path d="M122.525,429.23c-1.51,4.174-5.702,13.76-12.09,12.643c-4.032-0.707-8.542-5.73-8.542-11.396c0-4.142-3.358-7.5-7.5-7.5    s-7.5,3.358-7.5,7.5c0,12.615,9.204,24.111,20.953,26.17c1.261,0.221,2.506,0.33,3.733,0.33c10.636,0,19.828-8.201,25.052-22.646    c2.671-7.384,6.383-10.712,11.047-9.896c7.544,1.322,16.314,11.835,16.314,23.408c0,4.142,3.358,7.5,7.5,7.5s7.5-3.358,7.5-7.5    c0-17.968-13.154-35.453-28.724-38.183C138.1,407.529,127.729,414.843,122.525,429.23z"/>
	</g>
</g>















</svg>
