<?xml version="1.0" encoding="iso-8859-1"?>
<!-- Generator: Adobe Illustrator 19.0.0, SVG Export Plug-In . SVG Version: 6.00 Build 0)  -->
<svg xmlns="http://www.w3.org/2000/svg" xmlns:xlink="http://www.w3.org/1999/xlink" version="1.1" id="Layer_1" x="0px" y="0px" viewBox="0 0 502.764 502.764" style="enable-background:new 0 0 502.764 502.764;" xml:space="preserve" width="512" height="512">
<g>
	<g>
		<path style="fill:#3E5268;" d="M358.981,200.261l9.812-15.747c2.793-4.483,4.436-9.631,4.456-14.913c0-0.039,0-0.079,0-0.118    c0-6.62-2.07-12.77-5.59-17.83c6.49-5.73,10.59-14.1,10.59-23.44c0-13.47-8.52-24.95-20.46-29.35c0.65-2.51,1-5.14,1-7.85    c0-17.28-14.01-31.28-31.28-31.28c-2.42,0-4.77,0.28-7.04,0.81c-0.13-17.16-14.08-31.03-31.27-31.03    c-5.21,0-10.13,1.29-14.45,3.54c-2.79-14.41-15.47-25.29-30.7-25.29c-9.37,0-17.77,4.12-23.5,10.64    c-5.73-6.52-14.13-10.64-23.5-10.64c-15.23,0-27.91,10.88-30.7,25.29c-4.32-2.25-9.24-3.54-14.45-3.54    c-17.19,0-31.14,13.87-31.27,31.03c-2.27-0.53-4.62-0.81-7.04-0.81c-17.27,0-31.28,14-31.28,31.28c0,2.71,0.35,5.34,1,7.85    c-11.94,4.4-20.46,15.88-20.46,29.35c0,9.34,4.1,17.71,10.59,23.44c-3.52,5.06-5.59,11.21-5.59,17.83c0,0.039,0,0.079,0,0.118    c0.02,5.282,1.662,10.43,4.456,14.913l9.812,15.747"/>
		<path style="fill:#27394C;" d="M221.09,33.052c-4.32-2.25-9.24-3.54-14.45-3.54c-17.19,0-31.14,13.87-31.27,31.03    c-2.27-0.53-4.62-0.81-7.04-0.81c-17.27,0-31.28,14-31.28,31.28c0,2.71,0.35,5.34,1,7.85c-11.94,4.4-20.46,15.88-20.46,29.35    c0,9.34,4.1,17.71,10.59,23.44c-3.52,5.06-5.59,11.21-5.59,17.83v0.12c0.02,5.28,1.66,10.43,4.45,14.91l9.82,15.75H82.12    l-9.81-15.75c-2.79-4.48-4.44-9.63-4.46-14.91v-0.12c0-6.62,2.07-12.77,5.59-17.83c-6.49-5.73-10.59-14.1-10.59-23.44    c0-13.47,8.52-24.95,20.46-29.35c-0.65-2.51-1-5.14-1-7.85c0-17.28,14.01-31.28,31.28-31.28c2.42,0,4.77,0.28,7.04,0.81    c0.13-17.16,14.08-31.03,31.27-31.03c5.21,0,10.13,1.29,14.45,3.54c2.79-14.41,15.47-25.29,30.7-25.29c7.99,0,15.28,3,20.8,7.94    C217.44,22.142,218.42,28.452,221.09,33.052z"/>
		<path style="fill:#C99061;" d="M383.202,237.432c0,20.455-15.753,37.217-35.783,38.82c-1.045,0.089-2.107,0.133-3.17,0.133    c-2.727,0-5.384-0.275-7.952-0.815H101.676c-2.568,0.54-5.225,0.815-7.952,0.815h-0.027    c-21.509-0.018-38.926-17.444-38.926-38.953c0-20.278,15.496-36.934,35.296-38.767c1.204-0.124,2.426-0.177,3.657-0.177    c1.638,0,3.241,0.097,4.826,0.292h240.873c1.585-0.195,3.188-0.292,4.826-0.292c2.311,0,4.578,0.204,6.774,0.593    C369.309,202.278,383.202,218.234,383.202,237.432z"/>
		<path style="fill:#A86340;" d="M351.023,199.081v49.34c0,9.581-1.248,18.905-3.604,27.831c-1.045,0.089-2.107,0.133-3.17,0.133    c-2.727,0-5.384-0.275-7.952-0.815H101.676c-2.568,0.54-5.225,0.815-7.952,0.815h-0.027c-2.373-8.97-3.63-18.33-3.63-27.964    v-49.756c1.204-0.124,2.426-0.177,3.657-0.177c1.638,0,3.241,0.097,4.826,0.292h240.873c1.585-0.195,3.188-0.292,4.826-0.292    C346.56,198.488,348.827,198.692,351.023,199.081z"/>
		<path style="fill:#DD3352;" d="M339.422,444.869v50.394H101.675v-50.394c0-65.651,53.218-118.878,118.869-118.878    c9.289,0,18.33,1.071,27.008,3.082c21.987,5.109,41.627,16.32,57.053,31.736C326.113,382.326,339.422,412.043,339.422,444.869z"/>
		<path style="fill:#FC74AF;" d="M339.422,444.869v50.394H155.69v-50.394c0-56.362,39.227-103.568,91.861-115.796    c21.987,5.109,41.627,16.32,57.053,31.736C326.113,382.326,339.422,412.043,339.422,444.869z"/>
		<polyline style="fill:#DD3352;" points="278.395,366.524 251.927,420.234 220.545,386.073 220.547,386.073 189.165,420.234     162.697,366.524   "/>
		<path style="fill:#A86340;" d="M339.42,182.854v79.33c0,57.93-41.44,106.18-96.3,116.72c-7.3,1.41-14.85,2.15-22.58,2.15    c-65.65,0-118.86-53.22-118.86-118.87v-79.32c5.71,6.15,13.86,9.99,22.91,9.99c8.7,0,16.57-3.55,22.24-9.29    c5.58-5.65,9.03-13.41,9.03-21.98c0-1.79-0.15-3.54-0.44-5.25c0.13,0.01,0.26,0.01,0.39,0.01c10.69,0,20.12-5.36,25.77-13.55    c4.28,2.2,9.12,3.45,14.27,3.45c10.04,0,18.98-4.74,24.7-12.1c5.72,7.36,14.65,12.1,24.7,12.1c5.14,0,9.99-1.25,14.27-3.45    c5.64,8.19,15.08,13.55,25.77,13.55c0.13,0,0.26,0,0.39-0.01c-0.29,1.71-0.45,3.46-0.45,5.25c0,17.27,14.01,31.27,31.28,31.27    C325.56,192.854,333.72,189.004,339.42,182.854z"/>
		<path style="fill:#C99061;" d="M339.42,182.854v79.33c0,57.93-41.44,106.18-96.3,116.72c-54.85-10.54-96.29-58.79-96.29-116.72    v-78.62c5.58-5.65,9.03-13.41,9.03-21.98c0-1.79-0.15-3.54-0.44-5.25c0.13,0.01,0.26,0.01,0.39,0.01    c10.69,0,20.12-5.36,25.77-13.55c4.28,2.2,9.12,3.45,14.27,3.45c10.04,0,18.98-4.74,24.7-12.1c5.72,7.36,14.65,12.1,24.7,12.1    c5.14,0,9.99-1.25,14.27-3.45c5.64,8.19,15.08,13.55,25.77,13.55c0.13,0,0.26,0,0.39-0.01c-0.29,1.71-0.45,3.46-0.45,5.25    c0,17.27,14.01,31.27,31.28,31.27C325.56,192.854,333.72,189.004,339.42,182.854z"/>
		<path style="fill:#B3B3B3;" d="M427.578,117.31v41.472c0,11.455-9.285,20.739-20.733,20.739h-34.305    c-5.724,0-10.909-2.323-14.663-6.076c-3.754-3.754-6.076-8.938-6.076-14.663V117.31H427.578z"/>
		<path style="fill:#DADADA;" d="M427.578,117.31v41.472c0,11.455-9.285,20.739-20.733,20.739h-18.452    c-5.724,0-10.909-2.323-14.657-6.076c-3.754-3.754-6.076-8.938-6.076-14.663V117.31H427.578z"/>
		<path style="fill:#FFA829;" d="M440.024,95.04l-12.856,22.27H351.8l-12.856-22.27c-13.947-24.159-8.411-52.059,8.54-69.748    c10.358-10.798,24.968-17.789,42-17.789c3.777,0,7.431,0.346,10.95,0.997C438.775,15.608,460.599,59.404,440.024,95.04z"/>
		<path style="fill:#FFE563;" d="M440.024,95.04l-12.856,22.27h-53.467l-12.862-22.27c-13.947-24.159-8.411-52.059,8.546-69.748    c8.059-8.405,18.698-14.505,31.05-16.792C438.775,15.608,460.599,59.404,440.024,95.04z"/>
	</g>
	<g>
		<path d="M247.966,281.798c-7.324,7.324-17.062,11.357-27.419,11.357c-10.358,0-20.095-4.033-27.419-11.357    c-2.929-2.929-7.678-2.929-10.606,0c-2.929,2.929-2.929,7.677,0,10.606c10.157,10.157,23.662,15.751,38.026,15.751    s27.869-5.594,38.026-15.751c2.929-2.929,2.929-7.678,0-10.607C255.643,278.869,250.894,278.87,247.966,281.798z"/>
		<path d="M168.761,209.433c-4.142,0-7.5,3.358-7.5,7.5v29.22c0,4.142,3.358,7.5,7.5,7.5s7.5-3.358,7.5-7.5v-29.22    C176.261,212.791,172.903,209.433,168.761,209.433z"/>
		<path d="M272.335,209.433c-4.143,0-7.5,3.358-7.5,7.5v29.22c0,4.142,3.357,7.5,7.5,7.5s7.5-3.358,7.5-7.5v-29.22    C279.835,212.791,276.477,209.433,272.335,209.433z"/>
		<path d="M254.108,449.793c0,4.142,3.357,7.5,7.5,7.5h45.61c4.143,0,7.5-3.358,7.5-7.5s-3.357-7.5-7.5-7.5h-45.61    C257.466,442.293,254.108,445.651,254.108,449.793z"/>
		<path d="M446.521,32.93C434.617,12.311,413.295,0,389.484,0c-18.146,0-34.983,7.14-47.412,20.105    c-7.881,8.223-13.299,17.945-16.161,28.251c-5.209-15.287-19.731-26.342-36.71-26.342c-3.276,0-6.549,0.423-9.72,1.244    c-0.932-2.088-2.052-4.096-3.357-6.014c-2.329-3.424-6.993-4.312-10.42-1.981c-3.424,2.33-4.312,6.995-1.98,10.42    c1.819,2.674,3.052,5.633,3.664,8.796c0.449,2.325,1.971,4.3,4.103,5.33c2.134,1.029,4.626,0.991,6.725-0.102    c3.382-1.761,7.181-2.692,10.986-2.692c13.009,0,23.672,10.581,23.771,23.587c0.018,2.279,1.07,4.427,2.861,5.836    c1.335,1.051,2.973,1.607,4.639,1.607c0.569,0,1.141-0.065,1.706-0.197c0.457-0.107,0.921-0.18,1.383-0.259    c0.298,10.674,3.216,21.378,8.887,31.201l11.648,20.173v39.822c0,11.199,6.554,20.896,16.028,25.458l-5.01,8.044    c-2.652-0.638-5.389-1.054-8.195-1.214v-8.218c0-3.085-1.89-5.856-4.762-6.982c-2.874-1.127-6.143-0.378-8.239,1.884    c-4.476,4.829-10.82,7.598-17.409,7.598c-13.112,0-23.78-10.663-23.78-23.77c0-1.303,0.116-2.648,0.345-3.996    c0.386-2.277-0.298-4.605-1.855-6.311c-1.557-1.706-3.813-2.6-6.115-2.421c0.084-0.007,0.168-0.011,0.187-0.012    c-7.826,0-15.15-3.852-19.594-10.304c-2.139-3.105-6.248-4.142-9.605-2.417c-3.383,1.739-7.03,2.62-10.841,2.62    c-7.389,0-14.233-3.354-18.778-9.202c-1.421-1.828-3.606-2.898-5.922-2.898s-4.501,1.07-5.922,2.898    c-4.545,5.848-11.39,9.202-18.778,9.202c-3.811,0-7.458-0.882-10.842-2.62c-3.351-1.723-7.462-0.691-9.602,2.412    c-4.442,6.439-11.742,10.29-19.603,10.309c-2.234-0.115-4.41,0.776-5.924,2.435c-1.557,1.706-2.241,4.033-1.854,6.31    c0.222,1.31,0.335,2.654,0.335,3.996c0,13.107-10.663,23.77-23.77,23.77c-6.684,0-12.868-2.697-17.414-7.593    c-2.099-2.26-5.367-3.005-8.238-1.878c-2.871,1.127-4.759,3.897-4.759,6.981V191c-0.137-0.001-0.274-0.012-0.412-0.012    c-2.777,0-5.493,0.259-8.138,0.728l-6.963-11.167c-2.155-3.461-3.302-7.255-3.316-10.945v-0.12c0-4.869,1.468-9.553,4.247-13.547    c2.175-3.126,1.662-7.385-1.193-9.905c-5.118-4.519-8.054-11.013-8.054-17.818c0-9.917,6.25-18.885,15.553-22.313    c3.616-1.333,5.634-5.188,4.667-8.919c-0.504-1.947-0.76-3.955-0.76-5.969c0-13.112,10.667-23.78,23.78-23.78    c1.796,0,3.591,0.207,5.335,0.614c2.219,0.519,4.554,0,6.344-1.41c1.791-1.41,2.843-3.557,2.861-5.836    c0.098-13.006,10.762-23.587,23.77-23.587c3.806,0,7.604,0.931,10.986,2.692c2.099,1.094,4.592,1.132,6.725,0.103    c2.132-1.029,3.653-3.005,4.103-5.329c2.155-11.134,11.97-19.216,23.336-19.216c6.835,0,13.348,2.949,17.866,8.091    c1.424,1.62,3.477,2.549,5.634,2.549s4.209-0.929,5.634-2.549c4.519-5.142,11.031-8.091,17.866-8.091c4.142,0,7.5-3.358,7.5-7.5    s-3.357-7.5-7.5-7.5c-8.556,0-16.799,2.831-23.5,7.936c-6.701-5.105-14.944-7.936-23.5-7.936    c-15.548,0-29.316,9.278-35.428,22.995c-3.171-0.822-6.445-1.245-9.722-1.245c-18.386,0-33.9,12.959-37.817,30.223    c-0.165-0.002-0.329-0.003-0.493-0.003c-21.383,0-38.78,17.397-38.78,38.78c0,1.166,0.053,2.33,0.157,3.489    c-11.942,6.812-19.617,19.678-19.617,33.711c0,9.006,3.146,17.674,8.785,24.558c-2.489,5.19-3.785,10.87-3.785,16.712v0.148    c0.025,6.504,1.956,13.021,5.585,18.85l5.233,8.393c-14.217,7.95-23.855,23.146-23.855,40.557    c0,25.614,20.839,46.453,46.453,46.453c0.76,0,1.518-0.022,2.273-0.058c4.707,27.158,18.107,51.374,37.226,69.66    c-24.939,23.812-39.092,56.653-39.092,91.387c0,4.142,3.358,7.5,7.5,7.5s7.5-3.358,7.5-7.5c0-31.138,12.901-60.556,35.592-81.625    c3.789,2.849,7.746,5.484,11.848,7.9l25.823,52.4c1.094,2.22,3.212,3.757,5.662,4.109c0.356,0.051,0.712,0.076,1.066,0.076    c2.083,0,4.092-0.869,5.523-2.426l18.358-19.986v82.297l-103.872,0.135v-12.732c0-4.142-3.358-7.5-7.5-7.5s-7.5,3.358-7.5,7.5    v20.242c0,1.991,0.792,3.9,2.2,5.307c1.406,1.405,3.313,2.193,5.3,2.193c0.003,0,0.007,0,0.01,0l237.75-0.31    c4.139-0.005,7.49-3.362,7.49-7.5v-50.08c0-33.756-13.146-65.492-37.017-89.363c-0.67-0.67-1.351-1.336-2.042-1.995    c19.197-18.392,32.487-42.694,37.179-69.65c25.245-0.43,45.653-21.087,45.653-46.433c0-16.477-8.634-30.967-21.609-39.214    l6.05-9.713c0.307-0.488,0.602-0.983,0.886-1.486h30.611c15.57,0,28.237-12.667,28.237-28.237v-39.82l11.646-20.175    C458.425,78.17,458.426,53.55,446.521,32.93z M93.768,268.885c-17.343,0-31.453-14.11-31.453-31.453    c0-17.338,14.11-31.444,31.453-31.444c0.14,0,0.273,0.01,0.412,0.012v15.428c-11.039,0.586-17.994,7.177-21.042,14.181    c-1.653,3.798,0.085,8.217,3.884,9.87c0.975,0.424,1.99,0.625,2.989,0.625c2.895,0,5.652-1.685,6.881-4.509    c1.499-3.444,4.382-4.751,7.289-5.091v25.679c0,2.243,0.061,4.472,0.177,6.687C94.16,268.874,93.965,268.885,93.768,268.885z     M191.051,407.094l-12.713-25.797c9.611,3.416,19.753,5.699,30.266,6.689L191.051,407.094z M299.302,366.117    c21.038,21.038,32.624,49.008,32.624,78.757v42.59l-103.879,0.135v-82.274l18.356,19.982c1.675,1.823,4.146,2.702,6.589,2.35    c2.45-0.352,4.568-1.889,5.662-4.109l25.776-52.306c4.139-2.429,8.123-5.083,11.932-7.947    C297.362,364.224,298.347,365.163,299.302,366.117z M232.493,387.991c4.053-0.382,8.077-0.956,12.042-1.722    c6.26-1.203,12.335-2.864,18.201-4.937l-12.695,25.762L232.493,387.991z M241.697,371.54c-6.918,1.336-14.037,2.014-21.158,2.014    c-61.404,0-111.36-49.96-111.36-111.37v-65.036c4.823,2.09,10.068,3.206,15.41,3.206c20.868,0,37.938-16.572,38.741-37.247    c7.816-1.547,14.991-5.477,20.519-11.259c3.851,1.26,7.867,1.896,12,1.896c9.169,0,17.823-3.164,24.7-8.874    c6.876,5.71,15.53,8.874,24.7,8.874c4.065,0,8.125-0.65,11.988-1.905c5.523,5.787,12.699,9.719,20.521,11.267    c0.804,20.674,17.878,37.248,38.751,37.248c5.343,0,10.588-1.116,15.41-3.207v32.135c-0.023,0.352-0.028,0.706,0,1.063v31.839    C331.92,315.505,293.978,361.495,241.697,371.54z M346.742,268.778c0.114-2.187,0.178-4.384,0.178-6.594v-25.742    c3.036,0.184,6.496,1.315,8.164,5.153c1.229,2.825,3.986,4.511,6.882,4.511c0.998,0,2.013-0.2,2.986-0.624    c3.799-1.651,5.539-6.07,3.888-9.868c-4.616-10.615-13.947-13.881-21.92-14.162v-15.341c16.096,1.362,28.779,14.885,28.779,31.322    C375.699,253.936,362.922,267.501,346.742,268.778z M419.874,158.784c0,7.299-5.938,13.237-13.237,13.237h-34.303    c-7.299,0-13.237-5.938-13.237-13.237v-8.237h48.199c4.143,0,7.5-3.358,7.5-7.5s-3.357-7.5-7.5-7.5h-48.199V124.81h60.777V158.784    z M433.528,91.29l-10.689,18.52h-25.854V94.065c12.731-3.331,22.153-14.93,22.153-28.691c0-4.142-3.357-7.5-7.5-7.5    s-7.5,3.358-7.5,7.5c0,8.08-6.573,14.654-14.653,14.654s-14.654-6.574-14.654-14.654c0-4.142-3.357-7.5-7.5-7.5    s-7.5,3.358-7.5,7.5c0,13.761,9.423,25.36,22.154,28.691v15.744h-25.852l-10.694-18.52c-11.427-19.791-8.428-44.227,7.462-60.804    C362.473,20.499,375.466,15,389.484,15c18.388,0,34.854,9.507,44.047,25.43C442.724,56.354,442.724,75.366,433.528,91.29z"/>
	</g>
</g>















</svg>
