<svg height="512" viewBox="0 0 64 64" width="512" xmlns="http://www.w3.org/2000/svg"><g id="Signature"><path d="m15 3-12 12v46h44v-58z" fill="#ffeb99"/><path d="m15 14v-11l-12 12h11a1 1 0 0 0 1-1z" fill="#2488ff"/><path d="m43 40a2.012 2.012 0 0 0 1.992-2.177 2.075 2.075 0 0 0 -2.104-1.823h-.608l-2.31 4z" fill="#ff9478"/><path d="m27.6 55.43 6.6-5.43 2.31-4h-4.51a2.974 2.974 0 0 1 -1.98-.76l-1.02 1.76z" fill="#d80027"/><path d="m39.97 28h-2.919a7 7 0 0 0 -6.069 3.512l-6.182 10.758a2 2 0 0 0 .74 2.73 3.973 3.973 0 0 0 4.14-.1 3.022 3.022 0 0 1 -.68-1.87 3.162 3.162 0 0 1 3.184-3.03h.856l3.96-6.86z" fill="#ffbcab"/><path d="m51.2 20.56-5.2-3-6.03 10.44-2.97 5.14-3.96 6.86h6.93l2.31-4 4.62-8z" fill="#d80027"/><path d="m51.2 20.555 2.5-4.33a3 3 0 0 0 -5.2-3l-2.5 4.33z" fill="#ab2300"/><path d="m13 61h34v-34a33.98 33.98 0 0 1 -34 34z" fill="#ffe477"/><path d="m59.81 34a6 6 0 0 1 -4.61-2.159l-1.4-1.682a6 6 0 0 0 -4.61-2.159h-2.29l-4.62 8h.608a2.075 2.075 0 0 1 2.1 1.823 2.012 2.012 0 0 1 -1.988 2.177h-10.816a3.162 3.162 0 0 0 -3.184 3.03 3.022 3.022 0 0 0 .68 1.87 2.089 2.089 0 0 0 .2.22.806.806 0 0 0 .14.12 2.974 2.974 0 0 0 1.98.76h12.111a7.994 7.994 0 0 1 3.578.845l.622.31a7.994 7.994 0 0 0 3.578.845h9.111v-14z" fill="#ffbcab"/><g fill="#231f20"><path d="m61 47h-9.111a7.031 7.031 0 0 1 -3.131-.739l-.621-.311a9.057 9.057 0 0 0 -4.026-.95h-12.111a1.989 1.989 0 0 1 -1.316-.508 2.1 2.1 0 0 1 -.226-.221 2.013 2.013 0 0 1 -.458-1.251 1.879 1.879 0 0 1 .576-1.335 2.286 2.286 0 0 1 1.608-.685h10.816a2.924 2.924 0 0 0 2.107-.874 2.959 2.959 0 0 0 .881-2.387 3.013 3.013 0 0 0 -2.079-2.562l3.567-6.177h1.713a4.985 4.985 0 0 1 3.841 1.8l1.4 1.682a6.981 6.981 0 0 0 5.381 2.518h1.189a1 1 0 0 0 0-2h-1.189a4.985 4.985 0 0 1 -3.841-1.8l-1.4-1.682a6.981 6.981 0 0 0 -5.381-2.518h-.559l5.932-10.275a4 4 0 1 0 -6.928-4l-8.243 14.275h-2.34a8.021 8.021 0 0 0 -6.937 4.014l-6.18 10.755a3 3 0 0 0 1.105 4.1 4.951 4.951 0 0 0 2.485.67 4.864 4.864 0 0 0 .615-.044v.008a.967.967 0 0 0 -.121.337l-1.4 8.431a1 1 0 0 0 1.621.936l6.6-5.431a1 1 0 0 0 .23-.272l2.018-3.504h7.024a7.031 7.031 0 0 1 3.131.739l.621.311a9.057 9.057 0 0 0 4.026.95h9.111a1 1 0 0 0 0-2zm-18.112-10a1.083 1.083 0 0 1 1.112.908.978.978 0 0 1 -.3.8.957.957 0 0 1 -.7.292h-1.3l1.155-2zm6.478-23.275a2 2 0 0 1 3.464 2l-2 3.464-3.464-2zm-3 5.2 3.468 2-10.442 18.075h-4.619zm-20.329 25.207a1 1 0 0 1 -.37-1.364l6.182-10.758a6.014 6.014 0 0 1 5.2-3.01h1.186l-5.772 10h-.279a4.3 4.3 0 0 0 -3.029 1.278 3.862 3.862 0 0 0 -1.155 2.762 3.93 3.93 0 0 0 .28 1.382 2.952 2.952 0 0 1 -2.243-.29zm7.388 5.211-4.4 3.621.934-5.62.413-.714a3.935 3.935 0 0 0 1.628.37h2.777z"/><path d="m41 10h-20a1 1 0 0 1 0-2h20a1 1 0 0 1 0 2z"/><path d="m41 16h-20a1 1 0 0 1 0-2h20a1 1 0 0 1 0 2z"/><path d="m39 22h-28a1 1 0 0 1 0-2h28a1 1 0 0 1 0 2z"/><path d="m29 28h-18a1 1 0 0 1 0-2h18a1 1 0 0 1 0 2z"/><path d="m25 34h-14a1 1 0 0 1 0-2h14a1 1 0 0 1 0 2z"/><path d="m23 40h-12a1 1 0 0 1 0-2h12a1 1 0 0 1 0 2z"/><path d="m23 57h-12a1 1 0 0 1 0-2h12a1 1 0 0 1 0 2z"/><path d="m21 46h-10a1 1 0 0 1 0-2h10a1 1 0 0 1 0 2z"/><path d="m47 10a1 1 0 0 0 1-1v-6a1 1 0 0 0 -1-1h-31.933a1 1 0 0 0 -.706.292l-12.067 12.026a1 1 0 0 0 -.294.709v45.973a1 1 0 0 0 1 1h44a1 1 0 0 0 1-1v-10a1 1 0 0 0 -2 0v9h-42v-44h10a2 2 0 0 0 2-2v-10h30v5a1 1 0 0 0 1 1zm-41.553 4 8.553-8.524v8.524z"/></g></g></svg>